<svg xmlns="http://www.w3.org/2000/svg" viewBox="0 0 64 64" role="img" aria-labelledby="title desc">
  <title id="title">Remote Sensing Tools</title>
  <desc id="desc">A stylized Landsat-inspired satellite orbiting Earth.</desc>
  <defs>
    <linearGradient id="bg" x1="8" y1="8" x2="56" y2="56" gradientUnits="userSpaceOnUse">
      <stop offset="0%" stop-color="#0f172a" />
      <stop offset="100%" stop-color="#1d4ed8" />
    </linearGradient>
    <linearGradient id="glow" x1="18" y1="18" x2="46" y2="46" gradientUnits="userSpaceOnUse">
      <stop offset="0%" stop-color="#38bdf8" />
      <stop offset="100%" stop-color="#22c55e" />
    </linearGradient>
  </defs>
  <rect x="4" y="4" width="56" height="56" rx="16" fill="url(#bg)" />
  <circle cx="28" cy="36" r="12" fill="#e0f2fe" />
  <path d="M20 36c3-5 10-8 16-6 2 1 4 2 5 4-3 5-10 8-16 6-2-1-4-2-5-4Z" fill="url(#glow)" opacity="0.95" />
  <path d="M18 22c9-8 23-8 32 0" fill="none" stroke="#93c5fd" stroke-width="3" stroke-linecap="round" opacity="0.9" />
  <rect x="38" y="18" width="8" height="8" rx="2" fill="#f8fafc" />
  <path d="M42 18v-5M42 31v-5M33 22h-5M56 22h-5" stroke="#f8fafc" stroke-width="2.5" stroke-linecap="round" />
</svg>